<?xml version="1.0"?>
<svg xmlns="http://www.w3.org/2000/svg" xmlns:xlink="http://www.w3.org/1999/xlink" version="1.1" viewBox="0 0 224 224" width="24px" height="24px"><g transform="translate(3.808,3.808) scale(0.966,0.966)"><g fill="none" fill-rule="nonzero" stroke="none" stroke-width="none" stroke-linecap="butt" stroke-linejoin="none" stroke-miterlimit="10" stroke-dasharray="" stroke-dashoffset="0" font-family="none" font-weight="none" font-size="none" text-anchor="none" style="mix-blend-mode: normal"><g fill="#000000" stroke="#6e6e6e" stroke-width="8" stroke-linejoin="round"><path d="M205.33333,112c0,51.61333 -41.72,93.33333 -93.33333,93.33333c-51.61333,0 -93.33333,-41.72 -93.33333,-93.33333c0,-51.61333 41.72,-93.33333 93.33333,-93.33333c51.61333,0 93.33333,41.72 93.33333,93.33333zM125.16,112l33.50667,-33.50667l-13.16,-13.16l-33.50667,33.50667l-33.50667,-33.50667l-13.16,13.16l33.50667,33.50667l-33.50667,33.50667l13.16,13.16l33.50667,-33.50667l33.50667,33.50667l13.16,-13.16z"/></g><path d="M0,224v-224h224v224z" fill="none" stroke="none" stroke-width="1" stroke-linejoin="miter"/><g fill="#6e6e6e" stroke="none" stroke-width="1" stroke-linejoin="miter"><path d="M112,18.66667c-51.61333,0 -93.33333,41.72 -93.33333,93.33333c0,51.61333 41.72,93.33333 93.33333,93.33333c51.61333,0 93.33333,-41.72 93.33333,-93.33333c0,-51.61333 -41.72,-93.33333 -93.33333,-93.33333zM158.66667,145.50667l-13.16,13.16l-33.50667,-33.50667l-33.50667,33.50667l-13.16,-13.16l33.50667,-33.50667l-33.50667,-33.50667l13.16,-13.16l33.50667,33.50667l33.50667,-33.50667l13.16,13.16l-33.50667,33.50667z"/></g><path d="" fill="none" stroke="none" stroke-width="1" stroke-linejoin="miter"/></g></g></svg>
